<?xml version="1.0" encoding="utf-8"?>
<!-- Generator: Adobe Illustrator 28.0.0, SVG Export Plug-In . SVG Version: 6.00 Build 0)  -->
<svg version="1.1" id="Layer_1" xmlns="http://www.w3.org/2000/svg" xmlns:xlink="http://www.w3.org/1999/xlink" x="0px" y="0px"
	 viewBox="0 0 53.1 55.5" style="enable-background:new 0 0 53.1 55.5;" xml:space="preserve">
<style type="text/css">
	.st0{fill:#95AD0D;}
	.st1{fill:#F9B233;}
	.st2{fill-rule:evenodd;clip-rule:evenodd;fill:#F9B233;}
</style>
<g>
	<path d="M5.6,47.3v-2.3h0.6l0.5,0.9C6.8,46,6.9,46.3,7,46.6h0c0-0.3,0-0.6,0-1v-0.7h0.5v2.3H6.9l-0.5-0.9c-0.1-0.2-0.3-0.6-0.4-0.8
		l0,0c0,0.3,0,0.6,0,1v0.7H5.6z"/>
	<path d="M9.9,47.2c-0.2,0.1-0.5,0.1-0.8,0.1c-0.4,0-0.7-0.1-1-0.3c-0.2-0.2-0.3-0.5-0.3-0.9c0-0.8,0.6-1.2,1.3-1.2
		c0.3,0,0.5,0.1,0.6,0.1l-0.1,0.4c-0.1-0.1-0.3-0.1-0.5-0.1c-0.4,0-0.8,0.2-0.8,0.8c0,0.5,0.3,0.8,0.7,0.8c0.1,0,0.2,0,0.3,0v-0.5H9
		v-0.4h0.9V47.2z"/>
	<rect x="10.3" y="44.9" width="0.5" height="2.3"/>
	<path d="M11.3,47.3v-2.3h0.6l0.5,0.9c0.1,0.2,0.3,0.5,0.4,0.8h0c0-0.3,0-0.6,0-1v-0.7h0.5v2.3h-0.6l-0.5-0.9
		c-0.1-0.2-0.3-0.6-0.4-0.8l0,0c0,0.3,0,0.6,0,1v0.7H11.3z"/>
	<polygon points="15.1,46.3 14.2,46.3 14.2,46.8 15.2,46.8 15.2,47.3 13.7,47.3 13.7,44.9 15.2,44.9 15.2,45.4 14.2,45.4 14.2,45.8 
		15.1,45.8 	"/>
	<polygon points="17,46.3 16.1,46.3 16.1,46.8 17.1,46.8 17.1,47.3 15.6,47.3 15.6,44.9 17,44.9 17,45.4 16.1,45.4 16.1,45.8 
		17,45.8 	"/>
	<path d="M17.4,45c0.2,0,0.4,0,0.7,0c0.3,0,0.6,0.1,0.8,0.2c0.1,0.1,0.2,0.3,0.2,0.5c0,0.3-0.2,0.5-0.4,0.6v0
		c0.2,0.1,0.3,0.2,0.3,0.4c0.1,0.3,0.1,0.6,0.2,0.7h-0.5c0-0.1-0.1-0.3-0.2-0.5c-0.1-0.3-0.2-0.4-0.4-0.4H18v0.9h-0.5V45z M18,46
		h0.2c0.3,0,0.4-0.1,0.4-0.3c0-0.2-0.1-0.3-0.4-0.3c-0.1,0-0.2,0-0.2,0V46z"/>
	<path d="M19.5,46.7c0.1,0.1,0.4,0.1,0.6,0.1c0.2,0,0.4-0.1,0.4-0.3c0-0.1-0.1-0.2-0.4-0.3c-0.4-0.1-0.6-0.4-0.6-0.7
		c0-0.4,0.3-0.7,0.9-0.7c0.3,0,0.5,0.1,0.6,0.1l-0.1,0.4c-0.1,0-0.3-0.1-0.5-0.1c-0.2,0-0.3,0.1-0.3,0.2c0,0.1,0.1,0.2,0.4,0.3
		c0.4,0.2,0.6,0.4,0.6,0.7c0,0.4-0.3,0.7-0.9,0.7c-0.3,0-0.5-0.1-0.7-0.1L19.5,46.7z"/>
	<path d="M22.1,45c0.1,0,0.4,0,0.7,0c0.3,0,0.5,0,0.7,0.1c0.2,0.1,0.3,0.2,0.3,0.5c0,0.2-0.1,0.4-0.4,0.5v0c0.3,0.1,0.5,0.3,0.5,0.6
		c0,0.2-0.1,0.4-0.2,0.5c-0.2,0.1-0.5,0.2-0.9,0.2c-0.3,0-0.5,0-0.6,0V45z M22.6,45.8h0.2c0.3,0,0.4-0.1,0.4-0.3
		c0-0.2-0.1-0.3-0.4-0.3c-0.1,0-0.2,0-0.2,0V45.8z M22.6,46.9c0.1,0,0.1,0,0.2,0c0.2,0,0.5-0.1,0.5-0.3c0-0.2-0.2-0.3-0.5-0.3h-0.2
		V46.9z"/>
	<path d="M26.3,46.1c0,0.8-0.5,1.2-1.2,1.2c-0.7,0-1.1-0.5-1.1-1.2c0-0.7,0.4-1.2,1.1-1.2C25.9,44.9,26.3,45.4,26.3,46.1 M24.6,46.1
		c0,0.5,0.2,0.8,0.6,0.8c0.4,0,0.6-0.3,0.6-0.8c0-0.4-0.2-0.8-0.6-0.8C24.8,45.3,24.6,45.6,24.6,46.1"/>
	<path d="M27.1,46.7L27,47.3h-0.5l0.7-2.3h0.7l0.7,2.3H28l-0.2-0.6H27.1z M27.7,46.3l-0.1-0.5c0-0.1-0.1-0.3-0.1-0.5h0
		c0,0.1-0.1,0.3-0.1,0.5l-0.1,0.5H27.7z"/>
	<path d="M28.9,45c0.2,0,0.4,0,0.7,0c0.3,0,0.6,0.1,0.8,0.2c0.1,0.1,0.2,0.3,0.2,0.5c0,0.3-0.2,0.5-0.4,0.6v0
		c0.2,0.1,0.3,0.2,0.3,0.4c0.1,0.3,0.1,0.6,0.2,0.7h-0.5c0-0.1-0.1-0.3-0.2-0.5c-0.1-0.3-0.2-0.4-0.4-0.4h-0.2v0.9h-0.5V45z
		 M29.4,46h0.2c0.3,0,0.4-0.1,0.4-0.3c0-0.2-0.1-0.3-0.4-0.3c-0.1,0-0.2,0-0.2,0V46z"/>
	<path d="M30.9,45c0.2,0,0.4,0,0.7,0c0.4,0,0.7,0.1,1,0.3c0.2,0.2,0.4,0.5,0.4,0.9c0,0.4-0.2,0.8-0.4,0.9c-0.2,0.2-0.6,0.3-1.1,0.3
		c-0.3,0-0.5,0-0.6,0V45z M31.5,46.9c0,0,0.1,0,0.2,0c0.5,0,0.8-0.3,0.8-0.8c0-0.5-0.3-0.7-0.7-0.7c-0.1,0-0.2,0-0.2,0V46.9z"/>
	<path d="M36.2,46.1c0,0.8-0.5,1.2-1.2,1.2c-0.7,0-1.1-0.5-1.1-1.2c0-0.7,0.4-1.2,1.1-1.2C35.8,44.9,36.2,45.4,36.2,46.1 M34.5,46.1
		c0,0.5,0.2,0.8,0.6,0.8c0.4,0,0.6-0.3,0.6-0.8c0-0.4-0.2-0.8-0.6-0.8C34.7,45.3,34.5,45.6,34.5,46.1"/>
	<polygon points="36.6,44.9 38,44.9 38,45.4 37.1,45.4 37.1,45.9 37.9,45.9 37.9,46.3 37.1,46.3 37.1,47.3 36.6,47.3 	"/>
	<path d="M39.1,44.9h0.5v1h0c0.1-0.1,0.1-0.2,0.2-0.3l0.5-0.8H41l-0.8,1l0.8,1.3h-0.6l-0.6-1l-0.2,0.2v0.8h-0.5V44.9z"/>
	<polygon points="42.6,46.3 41.8,46.3 41.8,46.8 42.7,46.8 42.7,47.3 41.2,47.3 41.2,44.9 42.7,44.9 42.7,45.4 41.8,45.4 41.8,45.8 
		42.6,45.8 	"/>
	<path d="M43.1,47.3v-2.3h0.6l0.5,0.9c0.1,0.2,0.3,0.5,0.4,0.8h0c0-0.3,0-0.6,0-1v-0.7H45v2.3h-0.6L44,46.4
		c-0.1-0.2-0.3-0.6-0.4-0.8l0,0c0,0.3,0,0.6,0,1v0.7H43.1z"/>
	<path d="M46,47.3v-1l-0.7-1.4h0.6l0.2,0.6c0.1,0.2,0.1,0.3,0.2,0.4h0c0.1-0.1,0.1-0.3,0.2-0.4l0.2-0.6h0.6l-0.8,1.4v1H46z"/>
	<path d="M47.7,46.7l-0.2,0.6H47l0.7-2.3h0.7l0.7,2.3h-0.6l-0.2-0.6H47.7z M48.3,46.3l-0.1-0.5c0-0.1-0.1-0.3-0.1-0.5h0
		c0,0.1-0.1,0.3-0.1,0.5l-0.1,0.5H48.3z"/>
	<polygon class="st0" points="12.7,50.2 12,50.2 11.8,50.9 12.6,50.9 12.6,51.1 11.6,51.1 11.9,49.2 12.9,49.2 12.9,49.4 12.1,49.4 
		12,50 12.7,50 	"/>
	<path class="st0" d="M12.9,51.1l0.2-1c0-0.2,0-0.3,0.1-0.4h0.2l0,0.3h0c0.1-0.2,0.3-0.3,0.5-0.3c0.2,0,0.3,0.1,0.3,0.4
		c0,0.1,0,0.1,0,0.2L14,51.1h-0.2l0.1-0.8c0-0.1,0-0.1,0-0.2c0-0.1-0.1-0.2-0.2-0.2c-0.2,0-0.4,0.2-0.5,0.5l-0.1,0.7H12.9z"/>
	<path class="st0" d="M14.4,51.1l0.4-2H15L14.9,50h0c0.1-0.2,0.3-0.3,0.5-0.3c0.2,0,0.3,0.1,0.3,0.4c0,0.1,0,0.2,0,0.2l-0.2,0.8
		h-0.2l0.2-0.8c0-0.1,0-0.1,0-0.2c0-0.1-0.1-0.2-0.2-0.2c-0.2,0-0.4,0.2-0.5,0.5l-0.1,0.7H14.4z"/>
	<path class="st0" d="M16.8,51.1c0-0.1,0-0.2,0-0.4h0c-0.1,0.3-0.3,0.4-0.5,0.4c-0.2,0-0.4-0.2-0.4-0.5c0-0.5,0.4-1,1-1
		c0.1,0,0.3,0,0.4,0.1l-0.1,0.7c0,0.2-0.1,0.5-0.1,0.6H16.8z M17,49.9c0,0-0.1,0-0.2,0c-0.4,0-0.6,0.4-0.6,0.8
		c0,0.2,0.1,0.3,0.2,0.3c0.2,0,0.4-0.3,0.5-0.6L17,49.9z"/>
	<path class="st0" d="M17.4,51.1l0.2-1c0-0.2,0-0.3,0.1-0.4h0.2l0,0.3h0c0.1-0.2,0.3-0.3,0.5-0.3c0.2,0,0.3,0.1,0.3,0.4
		c0,0.1,0,0.1,0,0.2l-0.2,0.8h-0.2l0.1-0.8c0-0.1,0-0.1,0-0.2c0-0.1-0.1-0.2-0.2-0.2c-0.2,0-0.4,0.2-0.5,0.5l-0.1,0.7H17.4z"/>
	<path class="st0" d="M19.9,51c-0.1,0-0.2,0.1-0.4,0.1c-0.4,0-0.5-0.2-0.5-0.5c0-0.5,0.3-0.9,0.8-0.9c0.1,0,0.2,0,0.3,0.1L20,49.9
		c-0.1,0-0.1-0.1-0.2-0.1c-0.4,0-0.6,0.4-0.6,0.7c0,0.2,0.1,0.4,0.3,0.4c0.1,0,0.2,0,0.3-0.1L19.9,51z"/>
	<path class="st0" d="M20.1,51.1l0.3-1.4h0.2l-0.3,1.4H20.1z M20.6,49.5c-0.1,0-0.1-0.1-0.1-0.1c0-0.1,0.1-0.2,0.2-0.2
		c0.1,0,0.1,0.1,0.1,0.1C20.7,49.4,20.7,49.5,20.6,49.5L20.6,49.5z"/>
	<path class="st0" d="M20.8,51.1l0.2-1c0-0.2,0-0.3,0.1-0.4h0.2l0,0.3h0c0.1-0.2,0.3-0.3,0.5-0.3c0.2,0,0.3,0.1,0.3,0.4
		c0,0.1,0,0.1,0,0.2l-0.2,0.8h-0.2l0.2-0.8c0-0.1,0-0.1,0-0.2c0-0.1-0.1-0.2-0.2-0.2c-0.2,0-0.4,0.2-0.5,0.5L21,51.1H20.8z"/>
	<path class="st0" d="M22.3,51.4c0.1,0.1,0.2,0.1,0.4,0.1c0.2,0,0.4-0.1,0.5-0.5l0-0.2h0c-0.1,0.2-0.3,0.3-0.5,0.3
		c-0.3,0-0.4-0.2-0.4-0.5c0-0.5,0.3-0.9,0.9-0.9c0.2,0,0.3,0,0.4,0.1l-0.2,1.1c-0.1,0.3-0.1,0.5-0.3,0.6c-0.1,0.1-0.3,0.2-0.5,0.2
		c-0.2,0-0.3,0-0.4-0.1L22.3,51.4z M23.4,49.9c0,0-0.1,0-0.2,0c-0.3,0-0.6,0.4-0.6,0.7c0,0.2,0.1,0.3,0.3,0.3c0.2,0,0.4-0.3,0.5-0.5
		L23.4,49.9z"/>
	<path class="st0" d="M24.7,49.2c0.1,0,0.3,0,0.4,0c0.2,0,0.4,0,0.5,0.1c0.1,0.1,0.1,0.2,0.1,0.3c0,0.2-0.1,0.4-0.2,0.5
		c-0.1,0.1-0.4,0.2-0.6,0.2c-0.1,0-0.1,0-0.2,0l-0.1,0.8h-0.2L24.7,49.2z M24.7,50.1c0.1,0,0.1,0,0.2,0c0.3,0,0.5-0.2,0.5-0.5
		c0-0.2-0.2-0.3-0.4-0.3c-0.1,0-0.2,0-0.2,0L24.7,50.1z"/>
	<path class="st0" d="M25.7,51.1l0.2-0.9c0-0.2,0.1-0.4,0.1-0.5h0.2c0,0.1,0,0.2,0,0.3h0c0.1-0.2,0.2-0.3,0.4-0.3c0,0,0,0,0.1,0
		l0,0.2c0,0,0,0-0.1,0c-0.2,0-0.4,0.2-0.4,0.6L26,51.1H25.7z"/>
	<path class="st0" d="M27.9,50.3c0,0.4-0.3,0.9-0.8,0.9c-0.3,0-0.5-0.3-0.5-0.6c0-0.5,0.3-0.9,0.8-0.9C27.8,49.7,27.9,50,27.9,50.3
		 M26.9,50.5c0,0.2,0.1,0.4,0.3,0.4c0.3,0,0.5-0.4,0.5-0.7c0-0.2-0.1-0.4-0.3-0.4C27.1,49.9,26.9,50.2,26.9,50.5"/>
	<path class="st0" d="M28.1,51.1l0.2-1.2h-0.2l0-0.2h0.2l0-0.1c0-0.2,0.1-0.4,0.2-0.5c0.1-0.1,0.2-0.1,0.3-0.1c0.1,0,0.2,0,0.2,0
		l-0.1,0.2c0,0-0.1,0-0.1,0c-0.2,0-0.3,0.2-0.3,0.4l0,0.1h0.3l0,0.2h-0.3l-0.2,1.2H28.1z"/>
	<path class="st0" d="M29.9,51c-0.1,0.1-0.3,0.1-0.5,0.1c-0.4,0-0.5-0.2-0.5-0.6c0-0.4,0.3-0.9,0.8-0.9c0.3,0,0.4,0.2,0.4,0.4
		c0,0.4-0.4,0.5-0.9,0.4c0,0.1,0,0.2,0,0.3c0.1,0.1,0.2,0.2,0.3,0.2c0.2,0,0.3-0.1,0.4-0.1L29.9,51z M29.8,50c0-0.1-0.1-0.2-0.2-0.2
		c-0.2,0-0.4,0.2-0.4,0.4C29.6,50.3,29.8,50.3,29.8,50L29.8,50z"/>
	<path class="st0" d="M30.2,50.8c0.1,0,0.2,0.1,0.3,0.1c0.2,0,0.3-0.1,0.3-0.2c0-0.1,0-0.2-0.2-0.3c-0.2-0.1-0.2-0.2-0.2-0.3
		c0-0.2,0.2-0.4,0.5-0.4c0.1,0,0.2,0,0.3,0.1L31,49.9c0,0-0.1-0.1-0.2-0.1c-0.1,0-0.2,0.1-0.2,0.2c0,0.1,0.1,0.2,0.2,0.2
		c0.2,0.1,0.3,0.2,0.3,0.4c0,0.3-0.2,0.5-0.5,0.5c-0.1,0-0.3,0-0.3-0.1L30.2,50.8z"/>
	<path class="st0" d="M31.3,50.8c0.1,0,0.2,0.1,0.3,0.1c0.2,0,0.3-0.1,0.3-0.2c0-0.1,0-0.2-0.2-0.3c-0.2-0.1-0.2-0.2-0.2-0.3
		c0-0.2,0.2-0.4,0.5-0.4c0.1,0,0.2,0,0.3,0.1l-0.1,0.2c0,0-0.1-0.1-0.2-0.1c-0.1,0-0.2,0.1-0.2,0.2c0,0.1,0.1,0.2,0.2,0.2
		c0.2,0.1,0.3,0.2,0.3,0.4c0,0.3-0.2,0.5-0.5,0.5c-0.1,0-0.3,0-0.3-0.1L31.3,50.8z"/>
	<path class="st0" d="M32.3,51.1l0.3-1.4h0.2l-0.3,1.4H32.3z M32.8,49.5c-0.1,0-0.1-0.1-0.1-0.1c0-0.1,0.1-0.2,0.2-0.2
		s0.1,0.1,0.1,0.1C32.9,49.4,32.8,49.5,32.8,49.5L32.8,49.5z"/>
	<path class="st0" d="M34.3,50.3c0,0.4-0.3,0.9-0.8,0.9c-0.3,0-0.5-0.3-0.5-0.6c0-0.5,0.3-0.9,0.8-0.9C34.1,49.7,34.3,50,34.3,50.3
		 M33.2,50.5c0,0.2,0.1,0.4,0.3,0.4c0.3,0,0.5-0.4,0.5-0.7c0-0.2-0.1-0.4-0.3-0.4C33.4,49.9,33.2,50.2,33.2,50.5"/>
	<path class="st0" d="M34.4,51.1l0.2-1c0-0.2,0-0.3,0.1-0.4h0.2l0,0.3h0c0.1-0.2,0.3-0.3,0.5-0.3c0.2,0,0.3,0.1,0.3,0.4
		c0,0.1,0,0.1,0,0.2l-0.2,0.8h-0.2l0.2-0.8c0-0.1,0-0.1,0-0.2c0-0.1-0.1-0.2-0.2-0.2c-0.2,0-0.4,0.2-0.5,0.5l-0.1,0.7H34.4z"/>
	<path class="st0" d="M36.9,51.1c0-0.1,0-0.2,0-0.4h0c-0.2,0.3-0.3,0.4-0.5,0.4c-0.2,0-0.4-0.2-0.4-0.5c0-0.5,0.4-1,1-1
		c0.1,0,0.3,0,0.4,0.1l-0.1,0.7c0,0.2-0.1,0.5-0.1,0.6H36.9z M37,49.9c0,0-0.1,0-0.2,0c-0.4,0-0.6,0.4-0.6,0.8
		c0,0.2,0.1,0.3,0.2,0.3c0.2,0,0.4-0.3,0.5-0.6L37,49.9z"/>
	<polygon class="st0" points="37.5,51.1 37.8,49.1 38.1,49.1 37.7,51.1 	"/>
	<path class="st0" d="M38.1,51.1l0.3-1.4h0.2l-0.3,1.4H38.1z M38.5,49.5c-0.1,0-0.1-0.1-0.1-0.1c0-0.1,0.1-0.2,0.2-0.2
		c0.1,0,0.1,0.1,0.1,0.1C38.7,49.4,38.6,49.5,38.5,49.5L38.5,49.5z"/>
	<path class="st0" d="M38.8,50.8c0.1,0,0.2,0.1,0.3,0.1c0.2,0,0.3-0.1,0.3-0.2c0-0.1,0-0.2-0.2-0.3c-0.2-0.1-0.2-0.2-0.2-0.3
		c0-0.2,0.2-0.4,0.5-0.4c0.1,0,0.2,0,0.3,0.1l-0.1,0.2c0,0-0.1-0.1-0.2-0.1c-0.1,0-0.2,0.1-0.2,0.2c0,0.1,0.1,0.2,0.2,0.2
		c0.2,0.1,0.3,0.2,0.3,0.4c0,0.3-0.2,0.5-0.5,0.5c-0.1,0-0.3,0-0.3-0.1L38.8,50.8z"/>
	<path class="st0" d="M39.8,51.1l0.2-1c0-0.2,0-0.3,0.1-0.4h0.2l0,0.3h0c0.1-0.2,0.3-0.3,0.5-0.3c0.2,0,0.3,0.1,0.3,0.3
		c0.1-0.2,0.3-0.3,0.5-0.3c0.2,0,0.3,0.1,0.3,0.4c0,0.1,0,0.2,0,0.2l-0.2,0.8h-0.2l0.1-0.8c0-0.1,0-0.1,0-0.2c0-0.1-0.1-0.2-0.2-0.2
		c-0.2,0-0.4,0.2-0.4,0.5l-0.1,0.7h-0.2l0.2-0.8c0-0.1,0-0.1,0-0.2c0-0.1,0-0.2-0.2-0.2c-0.2,0-0.4,0.2-0.4,0.5L40,51.1H39.8z"/>
	<rect x="3.8" y="50.1" class="st1" width="6.9" height="0.1"/>
	<rect x="42.5" y="50.1" class="st1" width="6.9" height="0.1"/>
	<path class="st0" d="M46.3,27.1l-3.5,3.6c-0.3,0.3-0.6,0.4-1,0.3c-0.4-0.1-0.7-0.4-1.1-0.8c-0.4-0.4-0.6-0.9-0.6-1.3
		c0-0.4,0.1-0.8,0.4-1.1l6.2-6.3c0.3-0.3,0.6-0.4,1-0.3c0.4,0.1,0.7,0.4,1.1,0.8c0.3,0.4,0.5,0.8,0.6,1.2c0.1,0.4,0,0.8-0.3,1.1
		l-1.2,1.2L46.3,27.1z"/>
	<path class="st0" d="M41.5,37.5l-1.2-1.2c-0.3-0.3-0.4-0.6-0.3-1.1c0.1-0.4,0.3-0.8,0.6-1.2c0.4-0.4,0.7-0.7,1.1-0.8
		c0.4-0.1,0.7,0,1,0.3l6.2,6.3c0.3,0.3,0.5,0.7,0.4,1.1c0,0.4-0.2,0.8-0.6,1.3c-0.4,0.4-0.7,0.7-1.1,0.8c-0.4,0.1-0.7,0-1-0.3
		l-3.5-3.6L41.5,37.5z"/>
	<path class="st2" d="M29.6,23.3c-2.3,0-4.3,0.8-6,2c-0.5-5.9-1.8-21.2-2.1-21.5c-0.3-0.3-1.7,15.1-2.3,21.3
		c-1.6-1.1-3.5-1.8-5.6-1.8c-5.4,0-9.8,4.4-9.8,9.8c0,5.4,4.4,9.8,9.8,9.8c3.3,0,6.2-1.6,8-4.1c1.8,2.5,4.7,4.1,8,4.1
		c5.4,0,9.8-4.4,9.8-9.8C39.4,27.7,35,23.3,29.6,23.3 M13.5,39.2c-3.3,0-6.1-2.7-6.1-6.1c0-3.3,2.7-6.1,6.1-6.1
		c2.6,0,4.8,1.6,5.7,3.9h-5.2c-0.3,0-0.5,0.2-0.5,0.5v2.4c0,0.3,0.2,0.5,0.5,0.5h5.5c0,0,0,0,0,0C18.9,37.1,16.4,39.2,13.5,39.2
		 M29.6,39.2c-3.3,0-6.1-2.7-6.1-6.1c0-3.3,2.7-6.1,6.1-6.1s6.1,2.7,6.1,6.1C35.6,36.5,32.9,39.2,29.6,39.2"/>
	<polygon points="5.1,46.3 4.2,46.3 4.2,46.8 5.2,46.8 5.2,47.3 3.7,47.3 3.7,44.9 5.1,44.9 5.1,45.4 4.2,45.4 4.2,45.8 5.1,45.8 	
		"/>
</g>
</svg>
